<?xml version="1.0" encoding="UTF-8"?>
<svg id="Layer_1" data-name="Layer 1" xmlns="http://www.w3.org/2000/svg" viewBox="0 0 1800 1800">
  <defs>
    <style>
      .cls-1 {
        fill: #000;
        stroke-width: 0px;
      }
    </style>
  </defs>
  <path class="cls-1" d="M857.44,1585.24c-92.02,0-181.32-18.04-265.42-53.61-81.2-34.34-154.11-83.5-216.71-146.1-62.6-62.6-111.75-135.51-146.1-216.71-35.57-84.1-53.61-173.4-53.61-265.42s18.04-181.32,53.61-265.42c34.34-81.2,83.5-154.11,146.1-216.71,62.6-62.6,135.51-111.75,216.71-146.1,84.1-35.57,173.4-53.61,265.42-53.61s181.32,18.04,265.42,53.61c81.2,34.34,154.11,83.5,216.71,146.1,62.6,62.6,111.75,135.51,146.1,216.71,35.57,84.1,53.61,173.4,53.61,265.42s-18.04,181.32-53.61,265.42c-34.34,81.2-83.5,154.11-146.1,216.71s-135.51,111.75-216.71,146.1c-84.1,35.57-173.4,53.61-265.42,53.61ZM857.44,351.57c-304.28,0-551.83,247.55-551.83,551.83s247.55,551.83,551.83,551.83h0c304.28,0,551.83-247.55,551.83-551.83s-247.55-551.83-551.83-551.83Z"/>
  <path class="cls-1" d="M881.54,1251.07c-99.74,0-191.69-38.42-258.9-108.19-66.05-68.56-102.42-161.2-102.42-260.86v-1.72c0-98.94,36.3-191.47,102.23-260.55,67.83-71.07,160.76-110.22,261.67-110.22,53.64,0,101.05,8.48,144.92,25.92,37.32,14.84,71.65,35.82,108.03,66.05l.59.49.58.51c22.07,19.31,34.22,45.1,34.22,72.62,0,24.73-9.95,48.17-28.02,66-17.96,17.72-41.51,27.48-66.32,27.48-19.18,0-37.89-5.99-55.61-17.81l-3.46-2.31-3.11-2.76c-42.21-37.52-81.89-53.53-132.7-53.53-98.42,0-172.64,80.13-172.64,186.38v1.72c0,107.23,74.22,188.1,172.64,188.1,54.17,0,92.71-15.87,137.33-56.57,17.03-16.43,39.85-25.84,62.69-25.84,23.98,0,47.73,10,65.18,27.45s27.45,41.2,27.45,65.18c0,26.31-11.38,51.38-31.24,68.84-37.57,34.21-73.55,58.02-113.21,74.9-45.4,19.33-94.44,28.72-149.9,28.72Z"/>
</svg>