<?xml version="1.0" encoding="UTF-8"?>
<svg id="Layer_1" data-name="Layer 1" xmlns="http://www.w3.org/2000/svg" viewBox="0 0 1800 1800">
  <defs>
    <style>
      .cls-1 {
        fill: #000;
        stroke-width: 0px;
      }
    </style>
  </defs>
  <path class="cls-1" d="M1574.6,815.33l-237.1-183.96v-212.62c0-12.04-9.85-21.88-21.88-21.88h-131.25c-12.03,0-21.88,9.84-21.88,21.88v76.84l-222.28-172.45c-23.67-18.36-56.77-18.36-80.43,0L225.4,815.33c-28.64,22.23-33.84,63.45-11.62,92.07,22.21,28.63,63.43,33.85,92.07,11.62l561.32-435.51s15.86-14.09,32.81-14.09,32.79,14.07,32.79,14.07l561.37,435.54c11.96,9.28,26.13,13.78,40.18,13.78,19.58,0,38.97-8.73,51.89-25.4,22.22-28.64,17.02-69.86-11.62-92.08Z"/>
  <path class="cls-1" d="M1407.71,932.99l-490.44-380.52c-9.51-7.37-25.06-7.37-34.56,0l-490.44,380.52c-9.52,7.37-17.28,23.26-17.28,35.28v500.49c0,12.03,9.85,21.88,21.88,21.88h350c12.04,0,21.88-9.85,21.88-21.88v-350.01c0-12.03,9.85-21.88,21.88-21.88h218.75c12.03,0,21.88,9.85,21.88,21.88v350.01c0,12.03,9.85,21.88,21.88,21.88h350.01c12.03,0,21.88-9.85,21.88-21.88v-500.49c0-12.02-7.78-27.91-17.28-35.28Z"/>
</svg>