<?xml version="1.0" encoding="UTF-8"?>
<svg id="Layer_1" data-name="Layer 1" xmlns="http://www.w3.org/2000/svg" viewBox="0 0 794 317">
  <defs>
    <style>
      .cls-1, .cls-2, .cls-3, .cls-4, .cls-5, .cls-6, .cls-7, .cls-8, .cls-9, .cls-10, .cls-11 {
        stroke-width: 0px;
      }

      .cls-1, .cls-12 {
        fill: #f10706;
      }

      .cls-2 {
        fill: none;
      }

      .cls-3 {
        fill: #663a4b;
      }

      .cls-4 {
        fill: #666;
      }

      .cls-5 {
        fill: #e77366;
      }

      .cls-6 {
        fill: #fea11e;
      }

      .cls-7 {
        fill: #400200;
      }

      .cls-13 {
        fill: #3f5902;
        font-family: PlayfairDisplayRoman-Black, 'Playfair Display';
        font-variation-settings: 'wght' 900;
        font-weight: 800;
      }

      .cls-13, .cls-12 {
        font-size: 138.6px;
      }

      .cls-8 {
        fill: #a63004;
      }

      .cls-9 {
        fill: #b1bec6;
      }

      .cls-10 {
        fill: #f1c30e;
      }

      .cls-12 {
        font-family: PlayfairDisplayRoman-Medium, 'Playfair Display';
        font-variation-settings: 'wght' 500;
        font-weight: 500;
      }

      .cls-11 {
        fill: #4d4d4d;
      }
    </style>
  </defs>
  <g>
    <g>
      <path class="cls-8" d="M100.35,82.72l-43.65-1.76c.18,2.82-1.79,5.76-4.86,7.22-2.35,1.12-4.97,1.21-7.05.26-.82.95-1.86,1.74-3.04,2.29-3.92,1.86-8.35.77-9.88-2.44-.19-.39-.32-.82-.41-1.27-5.73,2.07-11.59.28-13.74-4.25-1.56-3.29-.78-7.29,2.03-10.52-1.57-.89-2.77-2.16-3.5-3.7-2.32-4.88.67-11.17,6.66-14.01,1.6-.76,3.29-1.21,5.02-1.34.73-3.54,3.49-6.82,7.24-8.6,5.05-2.4,10.67-1.67,13.75,1.75,7.03-1.63,13.69.97,16.24,6.34,1.8,3.79,1.25,8.43-1.46,12.45l36.64,17.59ZM56.44,80.32l40.93,1.65-34.59-16.6.21-.3c2.76-3.91,3.36-8.45,1.61-12.13-2.45-5.16-8.91-7.61-15.72-5.96l-.18.04-.12-.14c-2.82-3.28-8.34-4.01-13.13-1.73-3.66,1.74-6.32,4.95-6.94,8.39l-.04.24h-.24c-1.73.12-3.42.55-5.03,1.31-5.68,2.69-8.53,8.61-6.36,13.18.72,1.52,1.96,2.76,3.58,3.6l.36.19-.28.3c-2.85,3.09-3.69,6.97-2.19,10.13,2.02,4.26,7.87,5.93,13.31,3.8l.37-.15.05.4c.06.53.2,1.02.42,1.47,1.38,2.9,5.43,3.86,9.05,2.15,1.17-.55,2.19-1.35,2.98-2.31l.16-.19.22.11c1.95.98,4.46.92,6.73-.16,2.92-1.39,4.77-4.2,4.48-6.84l-.02-.19.4-.26Z"/>
      <path class="cls-8" d="M28.65,55.22c2.98-1.41,6.21-1.42,8.77-.28-2.28-.6-4.92-.4-7.39.77-4.99,2.37-7.38,7.77-5.35,12.06.82,1.73,2.24,3,3.96,3.77-2.34-.62-4.31-2.09-5.34-4.26-2.04-4.29.36-9.69,5.35-12.06Z"/>
      <path class="cls-8" d="M53.08,51.33c3.37.49,6.16,2.18,7.74,4.37-1.64-1.65-4.03-2.87-6.82-3.28-5.63-.83-10.71,1.99-11.34,6.29-.25,1.73.26,3.43,1.32,4.91-1.68-1.69-2.56-3.82-2.24-6,.63-4.3,5.71-7.11,11.34-6.29Z"/>
      <path class="cls-8" d="M32.65,74.9c1.39-2.4,3.68-3.91,6.07-4.29-1.93.63-3.69,2.01-4.84,3.99-2.32,4.01-1.25,8.98,2.4,11.09,1.47.85,3.13,1.1,4.74.84-1.97.65-4.12.52-5.97-.55-3.65-2.11-4.72-7.07-2.4-11.09Z"/>
    </g>
    <path class="cls-7" d="M350.96,93.12H75.87v138c0,11,9,20,20,20h242.83c11,0,20-9,20-20V93.12h-7.75Z"/>
    <path class="cls-2" d="M394.46,106.25c-.53-1.47-2.18-2.24-3.65-1.71l-13.05,4.73c-1.47.53-2.24,2.18-1.71,3.65h0c.53,1.47,2.18,2.24,3.65,1.71l13.05-4.73c1.47-.53,2.24-2.18,1.71-3.65h0Z"/>
    <path class="cls-3" d="M400.08,103.89h0c-1.78-4.91-7.26-7.47-12.17-5.69l-29.21,10.59v20.21l35.68-12.94c4.91-1.78,7.47-7.26,5.69-12.17ZM390.69,109.89l-13.05,4.73c-1.47.53-3.11-.23-3.65-1.71h0c-.53-1.47.23-3.11,1.71-3.65l13.05-4.73c1.47-.53,3.11.23,3.65,1.71h0c.53,1.47-.23,3.11-1.71,3.65Z"/>
    <path class="cls-3" d="M40.19,116.06l35.68,12.94v-20.21l-29.21-10.59c-4.91-1.78-10.39.78-12.17,5.69h0c-1.78,4.91.78,10.39,5.69,12.17ZM42.17,106.25h0c.53-1.47,2.18-2.24,3.65-1.71l13.05,4.73c1.47.53,2.24,2.18,1.71,3.65h0c-.53,1.47-2.18,2.24-3.65,1.71l-13.05-4.73c-1.47-.53-2.24-2.18-1.71-3.65Z"/>
    <rect class="cls-4" x="88.55" y="251.12" width="257.47" height="12.33" rx="5" ry="5"/>
    <rect class="cls-11" x="93.55" y="263.45" width="250" height="26"/>
    <path class="cls-8" d="M90.02,250.24c1.85.57,3.81.88,5.85.88h78.81V93.12h-84.66v157.12Z"/>
    <rect class="cls-1" x="174.68" y="93.12" width="84.66" height="158"/>
    <path class="cls-8" d="M259.34,251.12h79.36c1.84,0,3.61-.27,5.3-.74V93.12h-84.66v158Z"/>
    <path class="cls-1" d="M218.04,37.21c-81.37-4.42-148.25,8.91-149.38,29.77l294.66,15.99c1.13-20.86-63.91-41.35-145.28-45.77Z"/>
    <path class="cls-8" d="M237.75,38.62c-6.44-.57-13.01-1.04-19.7-1.41-81.37-4.42-148.25,8.91-149.38,29.77l39.44,2.14c1.04-19.15,57.47-31.95,129.64-30.51Z"/>
    <path class="cls-8" d="M218.04,37.21c-5.84-.32-11.6-.54-17.27-.68,73.12,6.17,129.09,25.21,128.04,44.57l34.51,1.87c1.13-20.86-63.91-41.35-145.28-45.77Z"/>
    <path class="cls-7" d="M218.36,31.39c4.97.27,8.93,3.35,9.52,7.14l5.2.63c-.3-6.19-6.55-11.39-14.51-11.82-7.87-.43-14.59,3.96-15.68,9.98l5.2.23c.96-3.75,5.25-6.42,10.26-6.15Z"/>
    <path class="cls-9" d="M71.31,82.61h291.95c4.05,0,7.33,3.29,7.33,7.33v.36c0,4.05-3.29,7.33-7.33,7.33H71.31c-4.05,0-7.33-3.29-7.33-7.33v-.36c0-4.05,3.29-7.33,7.33-7.33Z"/>
    <g>
      <g>
        <path class="cls-5" d="M221.52,246.47s-12.89,6.75-11.55,25.01,11.55,17.56,11.55,17.56c0,0,10.2.71,11.55-17.56,1.35-18.27-11.55-25.01-11.55-25.01Z"/>
        <path class="cls-6" d="M221.52,256.54s-9.84,5.15-8.82,19.1c1.03,13.95,8.82,13.41,8.82,13.41,0,0,7.79.54,8.82-13.41,1.03-13.95-8.82-19.1-8.82-19.1Z"/>
        <path class="cls-10" d="M221.52,268.09s-6.35,3.32-5.69,12.32c.66,8.99,5.69,8.65,5.69,8.65,0,0,5.02.35,5.69-8.65.66-8.99-5.69-12.32-5.69-12.32Z"/>
      </g>
      <g>
        <path class="cls-5" d="M261.77,247.05s-14.65,1.99-20.5,19.48c-5.85,17.49,3.94,20.23,3.94,20.23,0,0,9.24,4.06,17.6-12.53,8.36-16.59-1.04-27.18-1.04-27.18Z"/>
        <path class="cls-6" d="M257.86,256.44s-11.19,1.52-15.66,14.88c-4.47,13.35,3.01,15.45,3.01,15.45,0,0,7.06,3.1,13.44-9.57,6.39-12.67-.79-20.76-.79-20.76Z"/>
        <path class="cls-10" d="M253.36,267.21s-7.21.98-10.1,9.59c-2.88,8.61,1.94,9.96,1.94,9.96,0,0,4.55,2,8.67-6.17,4.12-8.17-.51-13.38-.51-13.38Z"/>
      </g>
      <g>
        <path class="cls-5" d="M297,249.33s-14.7-1.64-25.32,13.8c-10.62,15.45-1.95,20.48-1.95,20.48,0,0,7.76,6.17,20.54-7.8,12.78-13.97,6.72-26.48,6.72-26.48Z"/>
        <path class="cls-6" d="M290.55,257.44s-11.23-1.25-19.33,10.54c-8.1,11.8-1.49,15.64-1.49,15.64,0,0,5.93,4.71,15.69-5.96,9.76-10.67,5.13-20.22,5.13-20.22Z"/>
        <path class="cls-10" d="M283.16,266.73s-7.24-.81-12.47,6.8c-5.23,7.61-.96,10.08-.96,10.08,0,0,3.82,3.04,10.12-3.84,6.29-6.88,3.31-13.04,3.31-13.04Z"/>
      </g>
      <g>
        <path class="cls-5" d="M346.79,248.12s-14.7-1.64-25.32,13.81c-10.61,15.45-1.95,20.48-1.95,20.48,0,0,7.76,6.17,20.54-7.8,12.78-13.97,6.72-26.48,6.72-26.48Z"/>
        <path class="cls-6" d="M340.34,256.23s-11.23-1.25-19.33,10.54c-8.1,11.8-1.49,15.64-1.49,15.64,0,0,5.93,4.71,15.69-5.96,9.76-10.67,5.13-20.22,5.13-20.22Z"/>
        <path class="cls-10" d="M332.95,265.53s-7.24-.81-12.47,6.8c-5.23,7.61-.96,10.08-.96,10.08,0,0,3.82,3.04,10.12-3.84,6.29-6.88,3.31-13.04,3.31-13.04Z"/>
      </g>
      <g>
        <path class="cls-5" d="M179.09,246.42s-10.09,10.46-2.29,27.74c7.79,17.28,17.42,13.49,17.42,13.49,0,0,10.13-2.42,4.94-20.52-5.19-18.1-20.07-20.7-20.07-20.7Z"/>
        <path class="cls-6" d="M182.67,256.17s-7.7,7.99-1.75,21.18c5.95,13.19,13.3,10.3,13.3,10.3,0,0,7.73-1.85,3.77-15.67-3.96-13.82-15.32-15.81-15.32-15.81Z"/>
        <path class="cls-10" d="M186.77,267.35s-4.97,5.15-1.13,13.66c3.84,8.51,8.58,6.64,8.58,6.64,0,0,4.99-1.19,2.43-10.1-2.55-8.91-9.88-10.19-9.88-10.19Z"/>
      </g>
      <g>
        <path class="cls-5" d="M142.78,249.72s-7.01,12.43,5.12,27.41c12.13,14.98,20.46,9.12,20.46,9.12,0,0,9.18-4.65-.64-21.02-9.82-16.37-24.94-15.52-24.94-15.52Z"/>
        <path class="cls-6" d="M148.83,258.36s-5.35,9.49,3.91,20.93c9.26,11.44,15.62,6.96,15.62,6.96,0,0,7.01-3.55-.49-16.05-7.5-12.5-19.04-11.85-19.04-11.85Z"/>
        <path class="cls-10" d="M155.77,268.27s-3.45,6.12,2.52,13.5c5.97,7.38,10.07,4.49,10.07,4.49,0,0,4.52-2.29-.32-10.35-4.84-8.06-12.28-7.64-12.28-7.64Z"/>
      </g>
      <g>
        <path class="cls-5" d="M87.49,248.2s-5.63,13.02,8.06,26.8c13.69,13.78,21.35,7.18,21.35,7.18,0,0,8.63-5.48-2.91-20.85-11.55-15.37-26.5-13.12-26.5-13.12Z"/>
        <path class="cls-6" d="M94.45,256.23s-4.3,9.94,6.16,20.46c10.46,10.52,16.3,5.48,16.3,5.48,0,0,6.59-4.18-2.23-15.92-8.82-11.74-20.23-10.02-20.23-10.02Z"/>
        <path class="cls-10" d="M102.42,265.44s-2.77,6.41,3.97,13.19c6.74,6.79,10.51,3.53,10.51,3.53,0,0,4.25-2.7-1.44-10.27-5.68-7.57-13.04-6.46-13.04-6.46Z"/>
      </g>
      <g>
        <path class="cls-5" d="M112.74,251.36s-5.63,13.02,8.06,26.8c13.69,13.78,21.35,7.18,21.35,7.18,0,0,8.63-5.48-2.92-20.85-11.55-15.37-26.49-13.12-26.49-13.12Z"/>
        <path class="cls-6" d="M119.7,259.39s-4.3,9.94,6.16,20.46c10.46,10.52,16.3,5.48,16.3,5.48,0,0,6.59-4.18-2.23-15.92-8.82-11.74-20.23-10.02-20.23-10.02Z"/>
        <path class="cls-10" d="M127.67,268.6s-2.77,6.41,3.97,13.19c6.74,6.79,10.51,3.53,10.51,3.53,0,0,4.25-2.7-1.44-10.27-5.68-7.57-13.04-6.46-13.04-6.46Z"/>
      </g>
      <g>
        <path class="cls-5" d="M324.33,250.75s-14.7-1.64-25.32,13.81c-10.62,15.45-1.95,20.48-1.95,20.48,0,0,7.76,6.17,20.54-7.8,12.78-13.97,6.72-26.48,6.72-26.48Z"/>
        <path class="cls-6" d="M317.88,258.86s-11.23-1.25-19.33,10.54c-8.1,11.8-1.49,15.64-1.49,15.64,0,0,5.93,4.71,15.69-5.96,9.76-10.67,5.13-20.22,5.13-20.22Z"/>
        <path class="cls-10" d="M310.49,268.16s-7.24-.81-12.47,6.8c-5.23,7.61-.96,10.08-.96,10.08,0,0,3.82,3.04,10.12-3.84,6.29-6.88,3.31-13.04,3.31-13.04Z"/>
      </g>
    </g>
  </g>
  <text class="cls-13" transform="translate(414.51 137.73) scale(.98 1)"><tspan x="0" y="0">IVY’S</tspan></text>
  <text class="cls-12" transform="translate(418.34 283.6) scale(.98 1)"><tspan x="0" y="0">bistro</tspan></text>
</svg>